<svg xmlns="http://www.w3.org/2000/svg" xmlns:xlink="http://www.w3.org/1999/xlink" width="1920" height="1080" viewBox="0 0 1920 1080">
  <defs>
    <clipPath id="clip-Web_1920_1">
      <rect width="1920" height="1080"/>
    </clipPath>
  </defs>
  <g id="Web_1920_1" data-name="Web 1920 – 1" clip-path="url(#clip-Web_1920_1)">
    <rect width="1920" height="1080" fill="#181c32"/>
    <g id="streamline-logo" transform="translate(576.01 278)">
      <path id="Path_1" data-name="Path 1" d="M224.607,475.534a81.322,81.322,0,0,0-12.5-4.4q-7.365-2.009-14.762-4.687a32.3,32.3,0,0,1-12.593-8.289,19.129,19.129,0,0,1-5.165-13.39,21.2,21.2,0,0,1,9.055-18.237c6.058-4.4,14.379-6.6,25.028-6.6a46.738,46.738,0,0,1,19.926,4.3,33.128,33.128,0,0,1,13.55,10.362l-12.434,11.8c-5.548-6.376-13.55-9.565-24.071-9.565q-12.275,0-12.275,7.492c0,1.69,1.243,3.188,3.73,4.623a38.065,38.065,0,0,0,9.341,3.411,121.393,121.393,0,0,1,12.02,3.667,117.061,117.061,0,0,1,12.052,5.037,24.357,24.357,0,0,1,9.31,7.875,19.863,19.863,0,0,1,3.762,12.052,21.106,21.106,0,0,1-9.724,18.811,43.772,43.772,0,0,1-24.39,6.377,48.586,48.586,0,0,1-23.593-5.58,35.07,35.07,0,0,1-14.825-14.347l14.347-9.884a26.524,26.524,0,0,0,10.681,9.246,33.059,33.059,0,0,0,15.144,3.666,20.787,20.787,0,0,0,9.565-2.008,6.376,6.376,0,0,0,3.921-6.121C229.8,479.041,228.082,477.128,224.607,475.534Z" transform="translate(-176.06 -388.463)" fill="#fff"/>
      <path id="Path_2" data-name="Path 2" d="M198.56,432.3h14.347V415.21H231.08V432.3h26.781v16.9H231.08v32.042a28.7,28.7,0,0,0,2.455,13.933,8.9,8.9,0,0,0,8.226,4.081,15.24,15.24,0,0,0,11.8-7.014l10.84,10.2a27,27,0,0,1-10.3,9.883,30,30,0,0,1-15.048,3.826,24.613,24.613,0,0,1-19.129-7.652q-7.014-7.652-7.014-22.318V449.2H198.56Z" transform="translate(-126.803 -398.791)" fill="#fff"/>
      <path id="Path_3" data-name="Path 3" d="M220.21,421.8h18.173v5.579a11.987,11.987,0,0,1,5.962-5.261,20.625,20.625,0,0,1,9.023-2.072,19.576,19.576,0,0,1,16.419,7.333l-10.362,13.231a9.119,9.119,0,0,0-8.289-3.667,11.478,11.478,0,0,0-7.907,3.029,16.482,16.482,0,0,0-4.846,8.608V504.69H220.21Z" transform="translate(-79.428 -388.287)" fill="#fff"/>
      <path id="Path_4" data-name="Path 4" d="M312.5,489.33a39.917,39.917,0,0,1-33.636,16.9,44.634,44.634,0,0,1-32.3-11.732,41.447,41.447,0,0,1-12.179-31.308A43.87,43.87,0,0,1,245.613,432.1q11.223-12.147,31.34-12.115a38.96,38.96,0,0,1,27.9,10.425,36.155,36.155,0,0,1,11,27.514,98.813,98.813,0,0,1-.956,11.637H253.361a20.054,20.054,0,0,0,8.13,14.666,29.365,29.365,0,0,0,17.695,5.1,26.112,26.112,0,0,0,22.318-11Zm-51.331-48.3a21.043,21.043,0,0,0-7.652,12.753h43.488a19.32,19.32,0,0,0-6.376-12.912,21.807,21.807,0,0,0-14.347-4.464,23.466,23.466,0,0,0-15.112,4.623Z" transform="translate(-48.494 -388.391)" fill="#fff"/>
      <path id="Path_5" data-name="Path 5" d="M266.142,432.2a40.522,40.522,0,0,1,15.208-9.023,58.888,58.888,0,0,1,19.544-3.188q16.26,0,25.091,8.927c5.9,5.93,8.863,14.347,8.863,25.187V504.8H316.676v-9.086c-6.058,6.7-14.634,10.043-25.665,10.043a32.456,32.456,0,0,1-21.935-7.11,23.816,23.816,0,0,1-8.194-19.129,21.616,21.616,0,0,1,10.585-19.767,53.115,53.115,0,0,1,28.152-6.536,54.651,54.651,0,0,1,17.057,2.232,20.055,20.055,0,0,0-3.985-14.028c-2.774-3.188-7.4-4.623-13.869-4.623a38.545,38.545,0,0,0-23.752,8.768Zm50.534,46.389v-7.97a47.565,47.565,0,0,0-15.144-2.232q-21.871,0-21.839,11a8.767,8.767,0,0,0,4.145,7.715A19.736,19.736,0,0,0,295,489.909,24.486,24.486,0,0,0,316.676,478.591Z" transform="translate(9.503 -388.332)" fill="#fff"/>
      <path id="Path_6" data-name="Path 6" d="M405.15,504.624H386.977v-49.9c0-11.924-4.623-17.854-13.869-17.854q-12.753,0-18.492,12.753v55H336.444V450.743a14.092,14.092,0,0,0-3.6-10.043,12.976,12.976,0,0,0-9.947-3.826,17.727,17.727,0,0,0-11.637,4.049,23.592,23.592,0,0,0-7.173,9.565v54.2H285.91V421.794h18.173v7.174q6.377-8.959,22.636-8.927,15.591,0,22.477,10.171c5.739-6.791,14.06-10.171,25.028-10.171,9.756,0,17.376,2.455,22.8,7.4s8.13,12.37,8.13,22.318Z" transform="translate(64.34 -388.221)" fill="#fff"/>
      <path id="Path_7" data-name="Path 7" d="M325.16,410.06h18.173v116.4H325.16Z" transform="translate(150.228 -410.06)" fill="#fff"/>
      <path id="Path_8" data-name="Path 8" d="M335.957,412.862a11.223,11.223,0,0,1,7.588-2.71,10.744,10.744,0,0,1,7.493,2.806,8.864,8.864,0,0,1,3.029,6.759,9.214,9.214,0,0,1-3.029,7.11,10.744,10.744,0,0,1-7.492,2.774,10.872,10.872,0,0,1-7.747-2.774,9.245,9.245,0,0,1-2.933-7.11A8.735,8.735,0,0,1,335.957,412.862Zm-1.5,30.639h18.173V526.4H334.459Z" transform="translate(167.073 -409.865)" fill="#fff"/>
      <path id="Path_9" data-name="Path 9" d="M341.5,421.809h18.2V429.3a34.656,34.656,0,0,1,25.506-9.246q33.285,0,33.317,37.781V504.7H400.482V459.271q0-11.8-4.942-17.057a20.342,20.342,0,0,0-15.463-5.261,21.043,21.043,0,0,0-12.147,3.73,22.541,22.541,0,0,0-8.1,10.3V504.7H341.5Z" transform="translate(185.984 -388.3)" fill="#fff"/>
      <path id="Path_10" data-name="Path 10" d="M444.473,489.33a39.916,39.916,0,0,1-33.636,16.9,44.634,44.634,0,0,1-32.3-11.732,41.447,41.447,0,0,1-12.211-31.308A43.87,43.87,0,0,1,377.584,432.1q11.255-12.147,31.34-12.115a38.96,38.96,0,0,1,27.9,10.425,36.155,36.155,0,0,1,11,27.514,98.813,98.813,0,0,1-.956,11.637H385.3a20.245,20.245,0,0,0,8.13,14.666,29.524,29.524,0,0,0,17.727,5.1,26.111,26.111,0,0,0,22.158-11Zm-51.331-48.3a21.234,21.234,0,0,0-7.684,12.753h43.679a19.319,19.319,0,0,0-6.376-12.912,21.807,21.807,0,0,0-14.347-4.464,23.4,23.4,0,0,0-15.272,4.623Z" transform="translate(240.223 -388.391)" fill="#fff"/>
      <rect id="Rectangle_1" data-name="Rectangle 1" width="71.385" height="16.706" transform="translate(696.46 100.94)" fill="#fff"/>
    </g>
  </g>
</svg>
