<svg id="Layer_1" data-name="Layer 1" xmlns="http://www.w3.org/2000/svg" viewBox="0 0 240.83 36.95"><path d="M191.28,437.37a25.51,25.51,0,0,0-3.92-1.38q-2.31-.63-4.63-1.47a10.13,10.13,0,0,1-3.95-2.6,6,6,0,0,1-1.62-4.2A6.65,6.65,0,0,1,180,422c1.9-1.38,4.51-2.07,7.85-2.07a14.66,14.66,0,0,1,6.25,1.35,10.39,10.39,0,0,1,4.25,3.25l-3.9,3.7c-1.74-2-4.25-3-7.55-3q-3.85,0-3.85,2.35c0,.53.39,1,1.17,1.45a11.94,11.94,0,0,0,2.93,1.07,38.06,38.06,0,0,1,3.77,1.15,36.71,36.71,0,0,1,3.78,1.58,7.64,7.64,0,0,1,2.92,2.47,6.23,6.23,0,0,1,1.18,3.78,6.62,6.62,0,0,1-3.05,5.9,13.73,13.73,0,0,1-7.65,2,15.24,15.24,0,0,1-7.4-1.75,11,11,0,0,1-4.65-4.5l4.5-3.1a8.32,8.32,0,0,0,3.35,2.9,10.37,10.37,0,0,0,4.75,1.15,6.52,6.52,0,0,0,3-.63,2,2,0,0,0,1.23-1.92C192.91,438.47,192.37,437.87,191.28,437.37Z" transform="translate(-176.06 -410.06)" style="fill:#fff"/><path d="M198.56,420.57h4.5v-5.36h5.7v5.36h8.4v5.3h-8.4v10.05a9,9,0,0,0,.77,4.37,2.79,2.79,0,0,0,2.58,1.28,4.78,4.78,0,0,0,3.7-2.2l3.4,3.2a8.47,8.47,0,0,1-3.23,3.1,9.41,9.41,0,0,1-4.72,1.2,7.72,7.72,0,0,1-6-2.4q-2.2-2.4-2.2-7V425.87h-4.5Z" transform="translate(-176.06 -410.06)" style="fill:#fff"/><path d="M220.21,420.57h5.7v1.75a3.76,3.76,0,0,1,1.87-1.65,6.47,6.47,0,0,1,2.83-.65,6.14,6.14,0,0,1,5.15,2.3l-3.25,4.15a2.86,2.86,0,0,0-2.6-1.15,3.6,3.6,0,0,0-2.48.95,5.17,5.17,0,0,0-1.52,2.7v17.6h-5.7Z" transform="translate(-176.06 -410.06)" style="fill:#fff"/><path d="M258.86,441.72a12.52,12.52,0,0,1-10.55,5.3,14,14,0,0,1-10.13-3.68,13,13,0,0,1-3.82-9.82,13.76,13.76,0,0,1,3.52-9.75q3.52-3.81,9.83-3.8a12.22,12.22,0,0,1,8.75,3.27,11.34,11.34,0,0,1,3.45,8.63,31,31,0,0,1-.3,3.65h-19.3a6.29,6.29,0,0,0,2.55,4.6,9.21,9.21,0,0,0,5.55,1.6,8.19,8.19,0,0,0,7-3.45Zm-16.1-15.15a6.6,6.6,0,0,0-2.4,4H254a6.06,6.06,0,0,0-2-4.05,6.84,6.84,0,0,0-4.5-1.4A7.36,7.36,0,0,0,242.76,426.57Z" transform="translate(-176.06 -410.06)" style="fill:#fff"/><path d="M262.51,423.82a12.71,12.71,0,0,1,4.77-2.83,18.47,18.47,0,0,1,6.13-1q5.1,0,7.87,2.8c1.85,1.86,2.78,4.5,2.78,7.9v15.9h-5.7v-2.85c-1.9,2.1-4.59,3.15-8.05,3.15a10.18,10.18,0,0,1-6.88-2.23,7.47,7.47,0,0,1-2.57-6,6.78,6.78,0,0,1,3.32-6.2,16.66,16.66,0,0,1,8.83-2.05,17.14,17.14,0,0,1,5.35.7,6.29,6.29,0,0,0-1.25-4.4c-.87-1-2.32-1.45-4.35-1.45a12.09,12.09,0,0,0-7.45,2.75Zm15.85,14.55v-2.5a14.92,14.92,0,0,0-4.75-.7q-6.86,0-6.85,3.45a2.75,2.75,0,0,0,1.3,2.42,6.19,6.19,0,0,0,3.5.88A7.68,7.68,0,0,0,278.36,438.37Z" transform="translate(-176.06 -410.06)" style="fill:#fff"/><path d="M323.31,446.57h-5.7V430.92c0-3.74-1.45-5.6-4.35-5.6q-4,0-5.8,4v17.25h-5.7v-16.9a4.42,4.42,0,0,0-1.13-3.15,4.07,4.07,0,0,0-3.12-1.2,5.56,5.56,0,0,0-3.65,1.27,7.4,7.4,0,0,0-2.25,3v17h-5.7v-26h5.7v2.25q2-2.81,7.1-2.8,4.89,0,7.05,3.19c1.8-2.13,4.41-3.19,7.85-3.19,3.06,0,5.45.77,7.15,2.32s2.55,3.88,2.55,7Z" transform="translate(-176.06 -410.06)" style="fill:#fff"/><path d="M325.16,410.06h5.7v36.51h-5.7Z" transform="translate(-176.06 -410.06)" style="fill:#fff"/><path d="M333.83,411a3.52,3.52,0,0,1,2.38-.85,3.37,3.37,0,0,1,2.35.88,2.78,2.78,0,0,1,.95,2.12,2.89,2.89,0,0,1-.95,2.23,3.37,3.37,0,0,1-2.35.87,3.41,3.41,0,0,1-2.43-.87,2.9,2.9,0,0,1-.92-2.23A2.74,2.74,0,0,1,333.83,411Zm-.47,9.61h5.7v26h-5.7Z" transform="translate(-176.06 -410.06)" style="fill:#fff"/><path d="M341.5,420.57h5.71v2.35a10.87,10.87,0,0,1,8-2.9q10.44,0,10.45,11.85v14.7H360V432.32q0-3.7-1.55-5.35a6.38,6.38,0,0,0-4.85-1.65,6.6,6.6,0,0,0-3.81,1.17,7.07,7.07,0,0,0-2.54,3.23v16.85H341.5Z" transform="translate(-176.06 -410.06)" style="fill:#fff"/><path d="M390.81,441.72a12.52,12.52,0,0,1-10.55,5.3,14,14,0,0,1-10.13-3.68,13,13,0,0,1-3.83-9.82,13.76,13.76,0,0,1,3.53-9.75q3.53-3.81,9.83-3.8a12.22,12.22,0,0,1,8.75,3.27,11.34,11.34,0,0,1,3.45,8.63,31,31,0,0,1-.3,3.65H372.25a6.35,6.35,0,0,0,2.55,4.6,9.26,9.26,0,0,0,5.56,1.6,8.19,8.19,0,0,0,6.95-3.45Zm-16.1-15.15a6.66,6.66,0,0,0-2.41,4H386a6.06,6.06,0,0,0-2-4.05,6.84,6.84,0,0,0-4.5-1.4A7.34,7.34,0,0,0,374.71,426.57Z" transform="translate(-176.06 -410.06)" style="fill:#fff"/><rect x="218.44" y="31.66" width="22.39" height="5.24" style="fill:#fff"/></svg>